<svg width="25" height="23" viewBox="0 0 25 23" fill="none" xmlns="http://www.w3.org/2000/svg">
<path d="M22.5 10.0166H2.5V6.26657H22.5V10.0166ZM22.5 15.0166H13.75V12.5166H22.5V15.0166ZM22.5 20.0166H13.75V17.5166H22.5V20.0166ZM11.25 20.0166H2.5V12.5166H11.25V20.0166ZM22.9125 2.10407L20.8375 0.016571L18.75 2.10407L16.6625 0.016571L14.5875 2.10407L12.5 0.016571L10.4125 2.10407L8.3375 0.016571L6.25 2.10407L4.1625 0.016571L2.0875 2.10407L0 0.016571V20.0166C0 20.6796 0.263392 21.3155 0.732233 21.7843C1.20107 22.2532 1.83696 22.5166 2.5 22.5166H22.5C23.163 22.5166 23.7989 22.2532 24.2678 21.7843C24.7366 21.3155 25 20.6796 25 20.0166V0.016571L22.9125 2.10407Z" fill="#B8B8B8"/>
</svg>
