<svg width="269" height="240" viewBox="0 0 269 240" fill="none" xmlns="http://www.w3.org/2000/svg">
<g filter="url(#filter0_dd_62_293)">
<circle cx="153.856" cy="113.14" r="104.629" fill="#FEFCFA"/>
<circle cx="153.856" cy="113.14" r="100" fill="#FFA17A"/>
<path d="M112.314 133.196L111.428 127.215C108.531 127.297 105.002 128.439 102.147 130.36C97.4663 133.51 95.9547 137.815 98.3778 141.416C102.636 147.743 110.933 139.917 112.508 142.257C112.941 142.9 112.565 143.564 111.691 144.152C109.865 145.381 105.828 146.267 102.937 145.97L103.737 151.934C107.358 152.15 111.565 150.851 114.703 148.739C118.766 146.004 121.095 141.858 118.395 137.846C113.999 131.314 105.615 139.011 104.092 136.748C103.729 136.208 104.028 135.708 104.696 135.258C106.265 134.202 109.813 133.422 112.314 133.196ZM124.153 121.304C122.302 122.55 121.39 124.36 121.407 126.441L116.682 119.419L110.896 123.314L123.738 142.397L129.525 138.502L124.834 131.533C123.917 130.17 124.031 128.785 125.163 128.023C126.166 127.348 127.337 127.644 128.133 128.827L133.048 136.131L138.835 132.237L132.794 123.261C130.613 120.021 127.111 119.314 124.153 121.304ZM138.234 111.828C136.151 113.23 134.011 115.38 132.207 117.864L136.089 120.857C137.286 119.192 138.698 117.793 139.753 117.083C141.167 116.132 142.294 116.195 142.977 117.155L139.763 119.319C136.222 121.776 135.332 124.506 137.201 127.283C139.001 129.958 141.901 130.547 144.884 128.539C146.685 127.328 147.589 125.785 147.651 124.099L148.672 125.617L154.356 121.792L148.229 112.687C145.996 109.37 142.297 109.093 138.234 111.828ZM144.415 123.512C143.592 124.065 142.818 123.914 142.299 123.143C141.797 122.397 141.974 121.717 142.771 121.18L144.778 119.83L145.643 121.116C145.647 122.122 145.161 123.01 144.415 123.512ZM154.278 104.394L152.893 102.337L147.106 106.231L156.574 120.299L162.36 116.405L157.843 109.692C156.597 107.84 157.671 105.772 160.528 104.41L157.015 99.189C155.189 100.418 154.268 102.27 154.278 104.394ZM155.834 94.6028L167.967 112.631L183.449 102.212L180.403 97.6855L170.887 104.089L169.382 101.852L177.817 96.1749L174.771 91.6485L166.335 97.3256L164.847 95.1138L174.131 88.8656L171.085 84.3392L155.834 94.6028ZM182.82 81.8221C180.737 83.2241 178.597 85.3743 176.794 87.8584L180.676 90.8507C181.872 89.1861 183.285 87.7871 184.339 87.0774C185.754 86.1255 186.88 86.1894 187.564 87.1493L184.349 89.3129C180.809 91.7701 179.918 94.4995 181.787 97.2771C183.587 99.9518 186.487 100.541 189.471 98.5333C191.271 97.3217 192.176 95.7788 192.237 94.0933L193.258 95.6107L198.942 91.7856L192.815 82.6813C190.582 79.3636 186.884 79.0875 182.82 81.8221ZM189.002 93.5055C188.179 94.0594 187.404 93.908 186.885 93.1365C186.383 92.3906 186.561 91.7106 187.358 91.1741L189.364 89.8241L190.229 91.11C190.234 92.1159 189.748 93.0036 189.002 93.5055ZM207.132 79.6225C206.731 80.1917 206.269 80.7268 205.934 80.9518C205.257 81.4448 204.508 81.2761 204.006 80.5303L201.151 76.2868L204.443 74.0714L201.985 70.4194L198.693 72.6348L196.045 68.6999L190.284 72.5769L192.932 76.5118L191.003 77.8099L193.461 81.4619L195.39 80.1638L198.834 85.2817C200.807 88.2136 204.154 88.6891 207.351 86.4999C208.843 85.496 210.213 84.0886 210.775 82.9254L207.132 79.6225Z" fill="#FEFCFA"/>
<path d="M10.6708 225.935L243.326 63.8961L253.22 86.6538L10.6708 225.935Z" fill="#FEFCFA"/>
</g>
<defs>
<filter id="filter0_dd_62_293" x="-6" y="0.511841" width="274.485" height="249.604" filterUnits="userSpaceOnUse" color-interpolation-filters="sRGB">
<feFlood flood-opacity="0" result="BackgroundImageFix"/>
<feColorMatrix in="SourceAlpha" type="matrix" values="0 0 0 0 0 0 0 0 0 0 0 0 0 0 0 0 0 0 127 0" result="hardAlpha"/>
<feOffset/>
<feGaussianBlur stdDeviation="4"/>
<feComposite in2="hardAlpha" operator="out"/>
<feColorMatrix type="matrix" values="0 0 0 0 0 0 0 0 0 0 0 0 0 0 0 0 0 0 0.25 0"/>
<feBlend mode="normal" in2="BackgroundImageFix" result="effect1_dropShadow_62_293"/>
<feColorMatrix in="SourceAlpha" type="matrix" values="0 0 0 0 0 0 0 0 0 0 0 0 0 0 0 0 0 0 127 0" result="hardAlpha"/>
<feOffset dy="4"/>
<feGaussianBlur stdDeviation="5"/>
<feComposite in2="hardAlpha" operator="out"/>
<feColorMatrix type="matrix" values="0 0 0 0 0 0 0 0 0 0 0 0 0 0 0 0 0 0 0.25 0"/>
<feBlend mode="normal" in2="effect1_dropShadow_62_293" result="effect2_dropShadow_62_293"/>
<feBlend mode="normal" in="SourceGraphic" in2="effect2_dropShadow_62_293" result="shape"/>
</filter>
</defs>
</svg>
